<svg width="48" height="49" viewBox="0 0 48 49" fill="none" xmlns="http://www.w3.org/2000/svg">
<path opacity="0.4" d="M21.5198 4.11441C20.5598 4.11441 19.7998 4.87441 19.7998 5.83441V42.4144C19.7998 43.3544 20.5598 44.1344 21.5198 44.1344C33.2998 44.1344 41.5198 35.9144 41.5198 24.1344C41.5198 12.3544 33.2798 4.11441 21.5198 4.11441Z" fill="white"/>
<path d="M31.8 23.1944L26.12 17.4944C25.54 16.9144 24.58 16.9144 24 17.4944C23.42 18.0744 23.42 19.0344 24 19.6144L27.12 22.7344H7.97998C7.15998 22.7344 6.47998 23.4144 6.47998 24.2344C6.47998 25.0544 7.15998 25.7344 7.97998 25.7344H27.12L24 28.8744C23.42 29.4544 23.42 30.4144 24 30.9944C24.3 31.2944 24.68 31.4344 25.06 31.4344C25.44 31.4344 25.82 31.2944 26.12 30.9944L31.8 25.2944C32.4 24.7144 32.4 23.7744 31.8 23.1944Z" fill="white"/>
</svg>
