<svg width="81" height="79" viewBox="0 0 81 79" fill="none" xmlns="http://www.w3.org/2000/svg">
<g clip-path="url(#clip0_357_2645)">
<g filter="url(#filter0_d_357_2645)">
<rect x="0.938965" y="0.228821" width="78.3673" height="78.3673" rx="39.1837" fill="url(#paint0_radial_357_2645)"/>
</g>
<path d="M55.4374 33.9784C47.2156 37.0122 38.5379 38.7733 29.7329 39.1949C30.1716 45.5269 34.5245 52.4577 38.086 52.4577C47.1101 52.4577 54.3621 38.1122 55.8933 35.0447C56.4783 33.9046 56.031 33.7323 55.4374 33.9784Z" fill="white"/>
<path opacity="0.4" d="M34.6535 36.521C30.3522 35.0447 31.2125 27.9745 31.1179 27.4988C30.6877 25.9486 24.167 31.4193 24.167 35.1349C24.167 36.6851 25.2251 37.1772 26.9628 37.2264C29.5357 37.2103 32.1025 36.9881 34.6363 36.562C34.6965 36.5702 34.6879 36.5292 34.6535 36.521Z" fill="white"/>
</g>
<defs>
<filter id="filter0_d_357_2645" x="-59.061" y="-39.7712" width="198.367" height="198.367" filterUnits="userSpaceOnUse" color-interpolation-filters="sRGB">
<feFlood flood-opacity="0" result="BackgroundImageFix"/>
<feColorMatrix in="SourceAlpha" type="matrix" values="0 0 0 0 0 0 0 0 0 0 0 0 0 0 0 0 0 0 127 0" result="hardAlpha"/>
<feOffset dy="20"/>
<feGaussianBlur stdDeviation="30"/>
<feComposite in2="hardAlpha" operator="out"/>
<feColorMatrix type="matrix" values="0 0 0 0 0.855 0 0 0 0 0.8649 0 0 0 0 0.9 0 0 0 0.5 0"/>
<feBlend mode="multiply" in2="BackgroundImageFix" result="effect1_dropShadow_357_2645"/>
<feBlend mode="normal" in="SourceGraphic" in2="effect1_dropShadow_357_2645" result="shape"/>
</filter>
<radialGradient id="paint0_radial_357_2645" cx="0" cy="0" r="1" gradientUnits="userSpaceOnUse" gradientTransform="translate(-44.2311 -24.261) rotate(46.2213) scale(152.337)">
<stop stop-color="#F0B828"/>
<stop offset="1" stop-color="#FF1C2A"/>
</radialGradient>
<clipPath id="clip0_357_2645">
<rect x="0.666992" y="0.228821" width="80" height="78.3673" rx="39.1837" fill="white"/>
</clipPath>
</defs>
</svg>
