<svg width="32" height="32" viewBox="0 0 32 32" fill="none" xmlns="http://www.w3.org/2000/svg">
<path opacity="0.4" d="M25.6135 8.48C24.2268 5.68 21.5468 3.61333 18.4401 2.93333C15.1868 2.21333 11.8535 2.98667 9.30679 5.04C6.74679 7.08 5.29346 10.1333 5.29346 13.4C5.29346 16.8533 7.36012 20.4667 10.4801 22.56V23.6667C10.4668 24.04 10.4535 24.6133 10.9068 25.08C11.3735 25.56 12.0668 25.6133 12.6135 25.6133H19.4535C20.1735 25.6133 20.7201 25.4133 21.0935 25.04C21.6001 24.52 21.5868 23.8533 21.5735 23.4933V22.56C25.7068 19.7733 28.3068 13.8933 25.6135 8.48Z" fill="url(#paint0_linear_375_4386)"/>
<path d="M20.3465 29.3333C20.2665 29.3333 20.1732 29.32 20.0932 29.2933C17.4132 28.5333 14.5999 28.5333 11.9199 29.2933C11.4265 29.4267 10.9065 29.1467 10.7732 28.6533C10.6265 28.16 10.9199 27.64 11.4132 27.5067C14.4265 26.6533 17.5999 26.6533 20.6132 27.5067C21.1065 27.6533 21.3999 28.16 21.2532 28.6533C21.1199 29.0667 20.7465 29.3333 20.3465 29.3333Z" fill="url(#paint1_linear_375_4386)"/>
<path d="M16 18.4667C15.8266 18.4667 15.6533 18.4267 15.5066 18.3333C15.0266 18.0533 14.8666 17.44 15.1333 16.9733L16.2666 15H15.1466C14.48 15 13.9333 14.7067 13.64 14.2133C13.3466 13.7067 13.3733 13.0933 13.7066 12.5067L15.1333 10.0267C15.4133 9.54667 16.0266 9.38667 16.4933 9.65333C16.9733 9.93333 17.1333 10.5467 16.8666 11.0133L15.7333 13H16.8533C17.52 13 18.0666 13.2933 18.36 13.7867C18.6533 14.2933 18.6266 14.9067 18.2933 15.4933L16.8666 17.9733C16.68 18.2933 16.3466 18.4667 16 18.4667Z" fill="url(#paint2_linear_375_4386)"/>
<defs>
<linearGradient id="paint0_linear_375_4386" x1="5.49746" y1="3.51962" x2="26.0684" y2="2.93445" gradientUnits="userSpaceOnUse">
<stop stop-color="#3B48CD"/>
<stop offset="0.973958" stop-color="#3D7AF5"/>
</linearGradient>
<linearGradient id="paint1_linear_375_4386" x1="10.8359" y1="26.958" x2="20.8117" y2="25.6573" gradientUnits="userSpaceOnUse">
<stop stop-color="#3B48CD"/>
<stop offset="0.973958" stop-color="#3D7AF5"/>
</linearGradient>
<linearGradient id="paint2_linear_375_4386" x1="13.4858" y1="9.85603" x2="18.411" y2="9.77001" gradientUnits="userSpaceOnUse">
<stop stop-color="#3B48CD"/>
<stop offset="0.973958" stop-color="#3D7AF5"/>
</linearGradient>
</defs>
</svg>
