<svg width="48" height="49" viewBox="0 0 48 49" fill="none" xmlns="http://www.w3.org/2000/svg">
<path opacity="0.4" d="M37.6201 12.6144H40.3401C39.9601 12.0744 39.5601 11.5744 39.1401 11.0744L37.6201 12.6144Z" fill="white"/>
<path opacity="0.4" d="M37.04 8.95441C36.54 8.53441 36.04 8.13441 35.5 7.75441V10.4744L37.04 8.95441Z" fill="white"/>
<path opacity="0.4" d="M34 15.6144C33.8 15.6144 33.62 15.5744 33.42 15.4944C33.06 15.3344 32.76 15.0544 32.6 14.6744C32.52 14.4944 32.48 14.2944 32.48 14.0944V6.09441C32.48 6.07441 32.5 6.0544 32.5 6.0144C29.92 4.8144 27.04 4.11441 24 4.11441C12.96 4.11441 4 13.0744 4 24.1144C4 35.1544 12.96 44.1144 24 44.1144C35.04 44.1144 44 35.1544 44 24.1144C44 21.0744 43.3 18.1944 42.08 15.5944C42.06 15.5944 42.04 15.6144 42 15.6144H34Z" fill="white"/>
<path d="M39.16 11.0744L45.0601 5.17441C45.6401 4.59441 45.6401 3.63442 45.0601 3.05442C44.4801 2.47442 43.5201 2.47442 42.9401 3.05442L37.04 8.95441C37.8 9.61441 38.5 10.3344 39.16 11.0744Z" fill="white"/>
<path d="M35.5 6.11441C35.5 5.29441 34.82 4.61441 34 4.61441C33.2 4.61441 32.56 5.25441 32.52 6.03441C33.56 6.53441 34.56 7.09441 35.5 7.75441V6.11441Z" fill="white"/>
<path d="M43.4998 14.1144C43.4998 13.2944 42.8198 12.6144 41.9998 12.6144H40.3398C40.9998 13.5544 41.5798 14.5544 42.0598 15.5944C42.8598 15.5544 43.4998 14.9144 43.4998 14.1144Z" fill="white"/>
<path d="M25.4694 19.485V17.6125H31.5033V19.485H25.4694ZM23.6593 32.1144C22.5774 32.1144 21.6064 31.8578 20.7464 31.3446C19.9003 30.8175 19.2276 30.1101 18.7282 29.2223C18.2427 28.3346 18 27.3359 18 26.2262C18 25.1166 18.2497 24.1179 18.749 23.2301C19.2484 22.3424 19.9211 21.6419 20.7672 21.1287C21.6134 20.6155 22.5704 20.3589 23.6385 20.3589C24.5401 20.3589 25.3377 20.5392 26.0312 20.8998C26.7248 21.2605 27.2726 21.7598 27.6749 22.3979L27.3212 22.9389V16.1144H29.6515V31.8647H27.4252V29.576L27.6957 30.013C27.3073 30.6927 26.7525 31.2128 26.0312 31.5734C25.3099 31.9341 24.5193 32.1144 23.6593 32.1144ZM23.8882 29.9298C24.5401 29.9298 25.1227 29.7702 25.6359 29.4512C26.163 29.1322 26.5722 28.6953 26.8635 28.1404C27.1686 27.5717 27.3212 26.9337 27.3212 26.2262C27.3212 25.5188 27.1686 24.8877 26.8635 24.3329C26.5722 23.778 26.163 23.3411 25.6359 23.0221C25.1227 22.7031 24.5401 22.5435 23.8882 22.5435C23.2362 22.5435 22.6467 22.7031 22.1196 23.0221C21.5925 23.3411 21.1834 23.778 20.8921 24.3329C20.6008 24.8877 20.4551 25.5188 20.4551 26.2262C20.4551 26.9337 20.6008 27.5717 20.8921 28.1404C21.1834 28.6953 21.5856 29.1322 22.0988 29.4512C22.6259 29.7702 23.2224 29.9298 23.8882 29.9298Z" fill="white"/>
</svg>
