<svg width="48" height="49" viewBox="0 0 48 49" fill="none" xmlns="http://www.w3.org/2000/svg">
<path opacity="0.4" d="M34 15.6144C33.62 15.6144 33.24 15.4744 32.94 15.1744C32.36 14.5944 32.36 13.6344 32.94 13.0544L37.04 8.95441C33.52 5.95441 28.98 4.11441 24 4.11441C12.96 4.11441 4 13.0744 4 24.1144C4 35.1544 12.96 44.1144 24 44.1144C35.04 44.1144 44 35.1544 44 24.1144C44 19.1344 42.16 14.5944 39.16 11.0744L35.06 15.1744C34.76 15.4744 34.38 15.6144 34 15.6144Z" fill="white"/>
<path d="M25.4694 19.485V17.6125H31.5033V19.485H25.4694ZM23.6593 32.1144C22.5774 32.1144 21.6064 31.8578 20.7464 31.3446C19.9003 30.8175 19.2276 30.1101 18.7282 29.2223C18.2427 28.3346 18 27.3359 18 26.2262C18 25.1166 18.2497 24.1179 18.749 23.2301C19.2484 22.3424 19.9211 21.6419 20.7672 21.1287C21.6134 20.6155 22.5704 20.3589 23.6385 20.3589C24.5401 20.3589 25.3377 20.5392 26.0312 20.8998C26.7248 21.2605 27.2726 21.7598 27.6749 22.3979L27.3212 22.9389V16.1144H29.6515V31.8647H27.4252V29.576L27.6957 30.013C27.3073 30.6927 26.7525 31.2128 26.0312 31.5734C25.3099 31.9341 24.5193 32.1144 23.6593 32.1144ZM23.8882 29.9298C24.5401 29.9298 25.1227 29.7702 25.6359 29.4512C26.163 29.1322 26.5722 28.6953 26.8635 28.1404C27.1686 27.5717 27.3212 26.9337 27.3212 26.2262C27.3212 25.5188 27.1686 24.8877 26.8635 24.3329C26.5722 23.778 26.163 23.3411 25.6359 23.0221C25.1227 22.7031 24.5401 22.5435 23.8882 22.5435C23.2362 22.5435 22.6467 22.7031 22.1196 23.0221C21.5925 23.3411 21.1834 23.778 20.8921 24.3329C20.6008 24.8877 20.4551 25.5188 20.4551 26.2262C20.4551 26.9337 20.6008 27.5717 20.8921 28.1404C21.1834 28.6953 21.5856 29.1322 22.0988 29.4512C22.6259 29.7702 23.2224 29.9298 23.8882 29.9298Z" fill="white"/>
<path d="M45.38 3.53441C45.22 3.17441 44.94 2.87442 44.56 2.71442C44.38 2.63442 44.18 2.59441 43.98 2.59441H35.98C35.16 2.59441 34.48 3.27441 34.48 4.09441C34.48 4.91441 35.16 5.59441 35.98 5.59441H40.36L37.02 8.93442C37.78 9.59442 38.48 10.2944 39.14 11.0544L42.48 7.71442V12.1144C42.48 12.9344 43.16 13.6144 43.98 13.6144C44.8 13.6144 45.48 12.9344 45.48 12.1144V4.11441C45.5 3.91441 45.46 3.73441 45.38 3.53441Z" fill="white"/>
</svg>
