<svg width="80" height="79" viewBox="0 0 80 79" fill="none" xmlns="http://www.w3.org/2000/svg">
<g clip-path="url(#clip0_325_16640)">
<g filter="url(#filter0_d_325_16640)">
<rect x="0.271973" y="0.228821" width="78.3673" height="78.3673" rx="39.1837" fill="url(#paint0_radial_325_16640)"/>
</g>
<path d="M60 27V31.84C60 35 58 37 54.84 37H48V23.02C48 20.8 49.82 19 52.04 19C54.22 19.02 56.22 19.9 57.66 21.34C59.1 22.8 60 24.8 60 27Z" fill="white"/>
<path opacity="0.4" d="M20 29V57C20 58.66 21.88 59.6 23.2 58.6L26.62 56.04C27.42 55.44 28.54 55.52 29.26 56.24L32.58 59.58C33.36 60.36 34.64 60.36 35.42 59.58L38.78 56.22C39.48 55.52 40.6 55.44 41.38 56.04L44.8 58.6C46.12 59.58 48 58.64 48 57V23C48 20.8 49.8 19 52 19H30H28C22 19 20 22.58 20 27V29Z" fill="white"/>
</g>
<defs>
<filter id="filter0_d_325_16640" x="-59.728" y="-39.7712" width="198.367" height="198.367" filterUnits="userSpaceOnUse" color-interpolation-filters="sRGB">
<feFlood flood-opacity="0" result="BackgroundImageFix"/>
<feColorMatrix in="SourceAlpha" type="matrix" values="0 0 0 0 0 0 0 0 0 0 0 0 0 0 0 0 0 0 127 0" result="hardAlpha"/>
<feOffset dy="20"/>
<feGaussianBlur stdDeviation="30"/>
<feComposite in2="hardAlpha" operator="out"/>
<feColorMatrix type="matrix" values="0 0 0 0 0.855 0 0 0 0 0.8649 0 0 0 0 0.9 0 0 0 0.5 0"/>
<feBlend mode="multiply" in2="BackgroundImageFix" result="effect1_dropShadow_325_16640"/>
<feBlend mode="normal" in="SourceGraphic" in2="effect1_dropShadow_325_16640" result="shape"/>
</filter>
<radialGradient id="paint0_radial_325_16640" cx="0" cy="0" r="1" gradientUnits="userSpaceOnUse" gradientTransform="translate(-44.8981 -24.261) rotate(51.4883) scale(135.653)">
<stop offset="0.0974963" stop-color="#EDFFC8"/>
<stop offset="1" stop-color="#00A757"/>
</radialGradient>
<clipPath id="clip0_325_16640">
<rect y="0.228821" width="80" height="78.3673" rx="39.1837" fill="white"/>
</clipPath>
</defs>
</svg>
