<svg width="81" height="79" viewBox="0 0 81 79" fill="none" xmlns="http://www.w3.org/2000/svg">
<g clip-path="url(#clip0_325_16568)">
<g filter="url(#filter0_d_325_16568)">
<rect x="0.605469" y="0.228821" width="78.3673" height="78.3673" rx="39.1837" fill="url(#paint0_radial_325_16568)"/>
</g>
<path d="M57.1489 63.2288H41.272V60.6442C43.4873 59.5365 46.0719 46.798 47.9181 46.798C55.1181 48.2749 60.1028 52.3365 60.1028 59.9058C60.1028 61.9366 58.9951 63.2288 57.1489 63.2288Z" fill="white"/>
<path opacity="0.4" d="M51.0568 37.7519C49.3952 42.9211 45.3337 46.6134 40.5337 46.6134C35.7337 46.6134 31.4875 42.9211 30.0106 37.7518C29.2721 37.3826 28.3491 36.6442 27.9798 34.798C27.6106 32.2134 29.2721 31.6596 29.2721 31.6596C29.4567 31.6596 29.4567 31.6596 29.6414 31.8442C29.826 31.1057 30.3798 30.5519 30.749 29.998C32.7798 28.1519 36.2875 27.0442 40.7183 27.0442C44.7798 27.0442 47.5491 27.2288 50.3183 29.998C50.8722 30.5518 51.2414 31.2903 51.6106 32.0288L51.9799 31.6596C51.9799 31.6596 53.4568 32.2134 53.0875 34.798C52.7183 36.6442 51.7953 37.3826 51.0568 37.7519Z" fill="white"/>
<path d="M40.1643 15.2288C33.8874 15.2288 28.7182 18.3672 28.7182 18.3672V28.7057C28.7182 28.7057 32.0412 24.8288 40.3489 24.8288C48.472 24.8288 51.9798 28.7057 51.9798 28.7057V18.3672C51.9798 18.3672 46.072 15.2288 40.1643 15.2288ZM43.672 20.9519H41.0874V23.5365H39.7951V20.9519H37.2105V19.475H39.7951V17.0749H41.0874V19.6596H43.672V20.9519ZM40.1643 60.6443V63.2288H24.2874C22.4412 63.2288 21.5181 61.9366 21.3335 59.9058C21.3335 52.3365 26.3182 48.275 33.5181 46.7981C35.5489 46.7981 37.9489 59.5365 40.1643 60.6443Z" fill="white"/>
</g>
<defs>
<filter id="filter0_d_325_16568" x="-59.3945" y="-39.7712" width="198.367" height="198.367" filterUnits="userSpaceOnUse" color-interpolation-filters="sRGB">
<feFlood flood-opacity="0" result="BackgroundImageFix"/>
<feColorMatrix in="SourceAlpha" type="matrix" values="0 0 0 0 0 0 0 0 0 0 0 0 0 0 0 0 0 0 127 0" result="hardAlpha"/>
<feOffset dy="20"/>
<feGaussianBlur stdDeviation="30"/>
<feComposite in2="hardAlpha" operator="out"/>
<feColorMatrix type="matrix" values="0 0 0 0 0.855 0 0 0 0 0.8649 0 0 0 0 0.9 0 0 0 0.5 0"/>
<feBlend mode="multiply" in2="BackgroundImageFix" result="effect1_dropShadow_325_16568"/>
<feBlend mode="normal" in="SourceGraphic" in2="effect1_dropShadow_325_16568" result="shape"/>
</filter>
<radialGradient id="paint0_radial_325_16568" cx="0" cy="0" r="1" gradientUnits="userSpaceOnUse" gradientTransform="translate(-44.5646 -24.261) rotate(51.4883) scale(135.653)">
<stop offset="0.0974963" stop-color="#C8D5FF"/>
<stop offset="1" stop-color="#1B48DB"/>
</radialGradient>
<clipPath id="clip0_325_16568">
<rect x="0.333496" y="0.228821" width="80" height="78.3673" rx="39.1837" fill="white"/>
</clipPath>
</defs>
</svg>
