<svg width="81" height="80" viewBox="0 0 81 80" fill="none" xmlns="http://www.w3.org/2000/svg">
<path d="M59.8183 38.1891C67.7039 38.1891 74.0965 31.7965 74.0965 23.9109C74.0965 16.0252 67.7039 9.63263 59.8183 9.63263C51.9326 9.63263 45.54 16.0252 45.54 23.9109C45.54 31.7965 51.9326 38.1891 59.8183 38.1891Z" fill="url(#paint0_linear_332_19412)"/>
<path d="M21.2782 38.1891C29.1639 38.1891 35.5564 31.7965 35.5564 23.9109C35.5564 16.0252 29.1639 9.63266 21.2782 9.63266C13.3926 9.63266 7 16.0252 7 23.9109C7 31.7965 13.3926 38.1891 21.2782 38.1891Z" fill="url(#paint1_linear_332_19412)"/>
<g filter="url(#filter0_b_332_19412)">
<path d="M58.992 58.0196C63.5063 53.3819 66.2912 47.0485 66.2912 40.0637C66.2912 25.8417 54.7642 14.3146 40.5421 14.3146C26.32 14.3146 14.793 25.8417 14.793 40.0637C14.793 47.0485 17.5779 53.3819 22.0921 58.0196L19.4981 63.449C18.4706 65.5995 19.3802 68.1766 21.5306 69.2098C23.6811 70.2373 26.2582 69.3277 27.2913 67.1772L29.2003 63.1852C32.6253 64.8696 36.4714 65.8185 40.5421 65.8185C44.6127 65.8185 48.4588 64.8696 51.8838 63.1852L53.7928 67.1772C54.8203 69.3277 57.3974 70.2373 59.5535 69.2098C61.7039 68.1823 62.6135 65.6051 61.586 63.449L58.992 58.0196Z" fill="url(#paint2_linear_332_19412)"/>
<path d="M58.5533 57.5926L58.2556 57.8984L58.4396 58.2836L61.0333 63.7124C61.9158 65.5643 61.1343 67.7755 59.2901 68.6571C57.4381 69.5397 55.2266 68.7579 54.3452 66.9133L54.3451 66.9131L52.4361 62.921L52.1691 62.3626L51.6136 62.6358C48.2704 64.28 44.5165 65.2062 40.5421 65.2062C36.5677 65.2062 32.8138 64.28 29.4705 62.6358L28.915 62.3626L28.648 62.921L26.7395 66.9121C26.7394 66.9122 26.7394 66.9123 26.7393 66.9125C25.8521 68.7587 23.6403 69.5387 21.7954 68.6577C19.9489 67.7704 19.169 65.558 20.0505 63.713L19.4981 63.449L20.0505 63.713L22.6445 58.2836L22.8285 57.8984L22.5308 57.5926C18.1232 53.0643 15.4052 46.8823 15.4052 40.0637C15.4052 26.1798 26.6581 14.9269 40.5421 14.9269C54.426 14.9269 65.6789 26.1798 65.6789 40.0637C65.6789 46.8823 62.961 53.0643 58.5533 57.5926Z" stroke="url(#paint3_linear_332_19412)" stroke-width="1.22449"/>
</g>
<path d="M42.6485 24.4444C42.6485 23.2661 41.6933 22.3108 40.5149 22.3108C39.3366 22.3108 38.3813 23.2661 38.3813 24.4444V40.4857C38.3813 41.664 39.3366 42.6193 40.5149 42.6193C41.6933 42.6193 42.6485 41.664 42.6485 40.4857V24.4444Z" fill="white"/>
<path d="M50.4299 42.6242C51.6082 42.6242 52.5635 41.6689 52.5635 40.4906C52.5635 39.3122 51.6082 38.357 50.4299 38.357H40.5199C39.3415 38.357 38.3863 39.3122 38.3863 40.4906C38.3863 41.6689 39.3415 42.6242 40.5199 42.6242H50.4299Z" fill="white"/>
<defs>
<filter id="filter0_b_332_19412" x="-29.2887" y="-29.767" width="139.661" height="143.481" filterUnits="userSpaceOnUse" color-interpolation-filters="sRGB">
<feFlood flood-opacity="0" result="BackgroundImageFix"/>
<feGaussianBlur in="BackgroundImageFix" stdDeviation="22.0408"/>
<feComposite in2="SourceAlpha" operator="in" result="effect1_backgroundBlur_332_19412"/>
<feBlend mode="normal" in="SourceGraphic" in2="effect1_backgroundBlur_332_19412" result="shape"/>
</filter>
<linearGradient id="paint0_linear_332_19412" x1="59.298" y1="8.38263" x2="59.8183" y2="38.1891" gradientUnits="userSpaceOnUse">
<stop stop-color="#959FFF"/>
<stop offset="0.329661" stop-color="#5F92F9"/>
<stop offset="1" stop-color="#1827B9"/>
</linearGradient>
<linearGradient id="paint1_linear_332_19412" x1="20.7579" y1="8.38266" x2="21.2782" y2="38.1891" gradientUnits="userSpaceOnUse">
<stop stop-color="#959FFF"/>
<stop offset="0.329661" stop-color="#5F92F9"/>
<stop offset="1" stop-color="#1827B9"/>
</linearGradient>
<linearGradient id="paint2_linear_332_19412" x1="17.7003" y1="66.5095" x2="66.6469" y2="20.9428" gradientUnits="userSpaceOnUse">
<stop stop-color="#C7E1FF" stop-opacity="0.92"/>
<stop offset="1" stop-color="#7985F0"/>
</linearGradient>
<linearGradient id="paint3_linear_332_19412" x1="18.4282" y1="18.6653" x2="64.7718" y2="64.7958" gradientUnits="userSpaceOnUse">
<stop stop-color="white" stop-opacity="0.46"/>
<stop offset="1" stop-color="white" stop-opacity="0"/>
</linearGradient>
</defs>
</svg>
